<svg width="16" height="16" viewBox="0 0 16 16" fill="none" xmlns="http://www.w3.org/2000/svg">
<path d="M11.6663 4.33331H11.673M4.66634 1.33331H11.333C13.174 1.33331 14.6663 2.8257 14.6663 4.66665V11.3333C14.6663 13.1743 13.174 14.6666 11.333 14.6666H4.66634C2.82539 14.6666 1.33301 13.1743 1.33301 11.3333V4.66665C1.33301 2.8257 2.82539 1.33331 4.66634 1.33331ZM10.6663 7.57998C10.7486 8.13481 10.6538 8.70146 10.3955 9.19932C10.1372 9.69719 9.72844 10.1009 9.22743 10.3531C8.72641 10.6053 8.15864 10.693 7.60487 10.6039C7.05109 10.5148 6.53952 10.2534 6.1429 9.85675C5.74629 9.46014 5.48483 8.94856 5.39572 8.39479C5.30661 7.84101 5.39438 7.27324 5.64656 6.77223C5.89873 6.27122 6.30247 5.86247 6.80033 5.60414C7.2982 5.34581 7.86484 5.25104 8.41967 5.33331C8.98562 5.41724 9.50958 5.68096 9.91414 6.08552C10.3187 6.49008 10.5824 7.01403 10.6663 7.57998Z" stroke="#7063E7" stroke-width="2" stroke-linecap="round" stroke-linejoin="round"/>
</svg>
