<svg width="16" height="16" viewBox="0 0 16 16" fill="none" xmlns="http://www.w3.org/2000/svg">
<path d="M15.3337 1.99999C14.6952 2.45031 13.9884 2.79473 13.2403 3.01999C12.8388 2.55833 12.3052 2.23112 11.7117 2.08261C11.1181 1.9341 10.4933 1.97145 9.92171 2.18963C9.3501 2.4078 8.85929 2.79626 8.51565 3.30247C8.17201 3.80868 7.99212 4.40821 8.00033 5.01999V5.68666C6.82875 5.71703 5.66784 5.4572 4.621 4.93029C3.57415 4.40338 2.67387 3.62575 2.00033 2.66666C2.00033 2.66666 -0.666341 8.66666 5.33366 11.3333C3.96068 12.2653 2.3251 12.7326 0.666992 12.6667C6.66699 16 14.0003 12.6667 14.0003 4.99999C13.9997 4.81429 13.9819 4.62905 13.947 4.44666C14.6274 3.77565 15.1075 2.92847 15.3337 1.99999Z" fill="#7063E7"/>
</svg>
