<svg width="16" height="16" viewBox="0 0 16 16" fill="none" xmlns="http://www.w3.org/2000/svg">
<path d="M15.0264 4.28002C14.9472 3.96363 14.7859 3.67373 14.5588 3.43962C14.3317 3.20551 14.0469 3.03548 13.7331 2.94669C12.5864 2.66669 7.99973 2.66669 7.99973 2.66669C7.99973 2.66669 3.41306 2.66669 2.2664 2.97335C1.95256 3.06214 1.66771 3.23218 1.44063 3.46629C1.21354 3.7004 1.05226 3.99029 0.973063 4.30669C0.763206 5.47039 0.660554 6.65089 0.666397 7.83335C0.658916 9.02472 0.761575 10.2142 0.973063 11.3867C1.06037 11.6933 1.22527 11.9721 1.45183 12.1963C1.67838 12.4206 1.95894 12.5826 2.2664 12.6667C3.41306 12.9734 7.99973 12.9734 7.99973 12.9734C7.99973 12.9734 12.5864 12.9734 13.7331 12.6667C14.0469 12.5779 14.3317 12.4079 14.5588 12.1737C14.7859 11.9396 14.9472 11.6497 15.0264 11.3334C15.2346 10.1784 15.3373 9.00691 15.3331 7.83335C15.3405 6.64199 15.2379 5.45249 15.0264 4.28002Z" fill="#7063E7"/>
<path d="M6.49973 10.0134L10.3331 7.83335L6.49973 5.65335V10.0134Z" fill="#7063E7"/>
<path d="M15.0264 4.28002C14.9472 3.96363 14.7859 3.67373 14.5588 3.43962C14.3317 3.20551 14.0469 3.03548 13.7331 2.94669C12.5864 2.66669 7.99973 2.66669 7.99973 2.66669C7.99973 2.66669 3.41306 2.66669 2.2664 2.97335C1.95256 3.06214 1.66771 3.23218 1.44063 3.46629C1.21354 3.7004 1.05226 3.99029 0.973063 4.30669C0.763206 5.47039 0.660554 6.65089 0.666397 7.83335C0.658916 9.02472 0.761575 10.2142 0.973063 11.3867C1.06037 11.6933 1.22527 11.9721 1.45183 12.1963C1.67838 12.4206 1.95894 12.5826 2.2664 12.6667C3.41306 12.9734 7.99973 12.9734 7.99973 12.9734C7.99973 12.9734 12.5864 12.9734 13.7331 12.6667C14.0469 12.5779 14.3317 12.4079 14.5588 12.1737C14.7859 11.9396 14.9472 11.6497 15.0264 11.3334C15.2346 10.1784 15.3373 9.00691 15.3331 7.83335C15.3405 6.64199 15.2379 5.45249 15.0264 4.28002Z" stroke="#495565"/>
<path d="M6.49973 10.0134L10.3331 7.83335L6.49973 5.65335V10.0134Z" stroke="#495565"/>
<path d="M10.5733 7.56587C10.9092 7.75781 10.9092 8.24216 10.5733 8.43411L7.41441 10.2392C7.08108 10.4297 6.66634 10.189 6.66634 9.80506L6.66634 6.19491C6.66634 5.811 7.08108 5.57032 7.41441 5.76079L10.5733 7.56587Z" fill="white"/>
</svg>
