<svg width="50" height="50" viewBox="0 0 50 50" fill="none" xmlns="http://www.w3.org/2000/svg">
<circle cx="25" cy="25" r="25" fill="#F4F2FD"/>
<path d="M35.6667 37V34.3333C35.6667 32.9188 35.1048 31.5623 34.1046 30.5621C33.1044 29.5619 31.7478 29 30.3333 29H19.6667C18.2522 29 16.8956 29.5619 15.8954 30.5621C14.8952 31.5623 14.3333 32.9188 14.3333 34.3333V37M30.3333 18.3333C30.3333 21.2789 27.9455 23.6667 25 23.6667C22.0545 23.6667 19.6667 21.2789 19.6667 18.3333C19.6667 15.3878 22.0545 13 25 13C27.9455 13 30.3333 15.3878 30.3333 18.3333Z" stroke="#DDDAFF" stroke-width="2.66667" stroke-linecap="round" stroke-linejoin="round"/>
</svg>
